<?xml version="1.0" encoding="UTF-8"?> <svg xmlns="http://www.w3.org/2000/svg" width="214" height="34" viewBox="0 0 214 34" fill="none"><path d="M29.2956 0H34.4787V31.9998H29.2956V0Z" fill="#1A1A1A"></path><path d="M52.5067 21.8581C52.5067 26.8158 48.4504 27.2665 47.0983 27.2665C43.9434 27.2665 43.4927 24.337 43.4927 22.7595V10.3652H38.3096V22.5342C38.3096 25.4637 39.211 28.1679 41.0138 29.7454C42.5913 31.3228 44.6194 31.9989 47.0983 31.9989C48.9011 31.9989 51.1546 31.5482 52.5067 30.1961V31.9989H57.6898V10.3652H52.5067V21.8581Z" fill="#1A1A1A"></path><path d="M67.8306 2.47852H62.6475V10.3658H58.8165V15.3235H62.6475V31.9994H67.8306V15.3235H71.6615V10.3658H67.8306V2.47852Z" fill="#1A1A1A"></path><path d="M87.8867 25.4652C86.76 26.3666 85.1825 27.0427 83.6051 27.0427C79.9994 27.0427 77.5206 24.3385 77.5206 20.7328C77.5206 17.1272 79.9994 14.6484 83.6051 14.6484C85.1825 14.6484 86.76 15.0991 87.8867 16.2258L88.5628 16.9019L92.1684 13.5216L91.267 12.8456C89.2388 11.0428 86.5346 9.91602 83.6051 9.91602C77.2952 9.91602 72.5629 14.6484 72.5629 20.9582C72.5629 27.268 77.2952 32.0004 83.6051 32.0004C86.5346 32.0004 89.2388 30.8736 91.267 29.0708L92.1684 28.3948L88.5628 24.7892L87.8867 25.4652Z" fill="#1A1A1A"></path><path d="M110.422 12.1689C108.844 10.5915 107.267 9.91543 104.788 9.91543C102.985 9.91543 101.182 10.3661 99.8303 11.7182V0H94.6472V31.9998H99.8303V20.0562C99.8303 15.0985 103.211 14.6478 104.563 14.6478C107.718 14.6478 107.492 17.5774 107.492 19.1548V31.7744H112.675V19.3802C112.675 16.4506 111.999 13.7464 110.422 12.1689Z" fill="#1A1A1A"></path><path d="M22.0844 24.1123C20.2816 25.9151 17.5774 27.0419 14.6478 27.0419C9.01403 27.0419 4.95771 22.5349 4.95771 16.4504C4.95771 10.3659 9.01402 5.85893 14.8731 5.85893C17.5773 5.85893 20.2816 6.98568 22.3097 9.01384L22.9858 9.68989L26.366 6.30963L25.69 5.63358C22.7604 2.70402 18.9295 1.12657 14.8731 1.12657C6.30982 0.901216 0 7.66174 0 16.4504C0 25.2391 6.30982 31.9996 14.6478 31.9996C18.7041 31.9996 22.7604 30.4222 25.4646 27.4926L26.1407 26.8165L22.7604 23.4363L22.0844 24.1123Z" fill="#1A1A1A"></path><path d="M83.3797 24.5647C85.371 24.5647 86.9853 22.9505 86.9853 20.9591C86.9853 18.9678 85.371 17.3535 83.3797 17.3535C81.3883 17.3535 79.774 18.9678 79.774 20.9591C79.774 22.9505 81.3883 24.5647 83.3797 24.5647Z" fill="#EF4335"></path><path d="M135.129 0.0990999C135.204 -0.0330328 135.394 -0.0330335 135.468 0.0990992L137.418 3.55802C137.446 3.60731 137.494 3.64208 137.549 3.65327L141.441 4.43858C141.59 4.46858 141.649 4.64954 141.546 4.7612L138.859 7.68424C138.821 7.7259 138.802 7.78215 138.809 7.83836L139.265 11.7826C139.282 11.9333 139.128 12.0451 138.99 11.982L135.38 10.3296C135.328 10.3061 135.269 10.3061 135.218 10.3296L131.607 11.982C131.469 12.0451 131.316 11.9333 131.333 11.7826L131.789 7.83836C131.795 7.78215 131.777 7.7259 131.739 7.68424L129.052 4.7612C128.949 4.64954 129.008 4.46858 129.156 4.43858L133.048 3.65327C133.104 3.64208 133.152 3.60731 133.18 3.55802L135.129 0.0990999Z" fill="#FDDD0A"></path><path d="M153.129 0.0990999C153.204 -0.0330328 153.394 -0.0330335 153.468 0.0990992L155.418 3.55802C155.446 3.60731 155.494 3.64208 155.549 3.65327L159.441 4.43858C159.59 4.46858 159.649 4.64954 159.546 4.7612L156.859 7.68424C156.821 7.7259 156.802 7.78215 156.809 7.83836L157.265 11.7826C157.282 11.9333 157.128 12.0451 156.99 11.982L153.38 10.3296C153.328 10.3061 153.269 10.3061 153.218 10.3296L149.607 11.982C149.469 12.0451 149.316 11.9333 149.333 11.7826L149.789 7.83836C149.795 7.78215 149.777 7.7259 149.739 7.68424L147.052 4.7612C146.949 4.64954 147.008 4.46858 147.156 4.43858L151.048 3.65327C151.104 3.64208 151.152 3.60731 151.18 3.55802L153.129 0.0990999Z" fill="#FDDD0A"></path><path d="M171.129 0.0990999C171.204 -0.0330328 171.394 -0.0330335 171.468 0.0990992L173.418 3.55802C173.446 3.60731 173.494 3.64208 173.549 3.65327L177.441 4.43858C177.59 4.46858 177.649 4.64954 177.546 4.7612L174.859 7.68424C174.821 7.7259 174.802 7.78215 174.809 7.83836L175.265 11.7826C175.282 11.9333 175.128 12.0451 174.99 11.982L171.38 10.3296C171.328 10.3061 171.269 10.3061 171.218 10.3296L167.607 11.982C167.469 12.0451 167.316 11.9333 167.333 11.7826L167.789 7.83836C167.795 7.78215 167.777 7.7259 167.739 7.68424L165.052 4.7612C164.949 4.64954 165.008 4.46858 165.156 4.43858L169.048 3.65327C169.104 3.64208 169.152 3.60731 169.18 3.55802L171.129 0.0990999Z" fill="#FDDD0A"></path><path d="M131.772 22.2H132.892V32H131.604V23.6L129.518 24.216L129.196 23.096L131.772 22.2ZM139.702 26.932C140.178 27.1747 140.552 27.5013 140.822 27.912C141.093 28.3227 141.228 28.7893 141.228 29.312C141.228 30.208 140.916 30.9127 140.29 31.426C139.665 31.93 138.858 32.182 137.868 32.182C136.888 32.182 136.086 31.93 135.46 31.426C134.835 30.9127 134.522 30.208 134.522 29.312C134.522 28.7893 134.658 28.3227 134.928 27.912C135.199 27.5013 135.572 27.1747 136.048 26.932C135.246 26.428 134.844 25.714 134.844 24.79C134.844 23.9033 135.138 23.222 135.726 22.746C136.324 22.2607 137.038 22.018 137.868 22.018C138.708 22.018 139.422 22.2607 140.01 22.746C140.608 23.222 140.906 23.9033 140.906 24.79C140.906 25.714 140.505 26.428 139.702 26.932ZM137.868 23.264C137.374 23.264 136.958 23.3947 136.622 23.656C136.296 23.9173 136.132 24.3047 136.132 24.818C136.132 25.3127 136.3 25.7 136.636 25.98C136.972 26.2507 137.383 26.386 137.868 26.386C138.354 26.386 138.764 26.2507 139.1 25.98C139.436 25.7 139.604 25.3127 139.604 24.818C139.604 24.3047 139.441 23.9173 139.114 23.656C138.788 23.3947 138.372 23.264 137.868 23.264ZM137.868 30.936C138.494 30.936 138.993 30.7913 139.366 30.502C139.749 30.2033 139.94 29.7787 139.94 29.228C139.94 28.6867 139.749 28.2713 139.366 27.982C138.993 27.6833 138.494 27.534 137.868 27.534C137.252 27.534 136.753 27.6833 136.37 27.982C135.997 28.2713 135.81 28.6867 135.81 29.228C135.81 29.7787 135.997 30.2033 136.37 30.502C136.753 30.7913 137.252 30.936 137.868 30.936ZM152.116 32L149.918 28.248H147.608V32H146.306V22.2H150.226C151.066 22.2 151.785 22.4987 152.382 23.096C152.979 23.684 153.278 24.398 153.278 25.238C153.278 25.8727 153.087 26.4513 152.704 26.974C152.331 27.4967 151.845 27.8653 151.248 28.08L153.558 32H152.116ZM147.608 23.418V27.072H150.226C150.711 27.072 151.122 26.8947 151.458 26.54C151.803 26.176 151.976 25.742 151.976 25.238C151.976 24.734 151.803 24.3047 151.458 23.95C151.122 23.5953 150.711 23.418 150.226 23.418H147.608ZM155.237 29.06C155.358 29.6853 155.643 30.1707 156.091 30.516C156.548 30.8613 157.108 31.034 157.771 31.034C158.695 31.034 159.367 30.6933 159.787 30.012L160.823 30.6C160.142 31.6547 159.115 32.182 157.743 32.182C156.632 32.182 155.727 31.8367 155.027 31.146C154.336 30.446 153.991 29.564 153.991 28.5C153.991 27.4453 154.332 26.568 155.013 25.868C155.694 25.168 156.576 24.818 157.659 24.818C158.686 24.818 159.521 25.182 160.165 25.91C160.818 26.6287 161.145 27.4967 161.145 28.514C161.145 28.6913 161.131 28.8733 161.103 29.06H155.237ZM157.659 25.966C157.006 25.966 156.464 26.1527 156.035 26.526C155.606 26.89 155.34 27.38 155.237 27.996H159.913C159.81 27.3333 159.549 26.8293 159.129 26.484C158.709 26.1387 158.219 25.966 157.659 25.966ZM167.172 25H168.488L165.688 32H164.26L161.46 25H162.776L164.974 30.698L167.172 25ZM170.134 23.726C169.9 23.726 169.704 23.6467 169.546 23.488C169.387 23.3293 169.308 23.138 169.308 22.914C169.308 22.69 169.387 22.4987 169.546 22.34C169.704 22.172 169.9 22.088 170.134 22.088C170.358 22.088 170.549 22.172 170.708 22.34C170.866 22.4987 170.946 22.69 170.946 22.914C170.946 23.138 170.866 23.3293 170.708 23.488C170.549 23.6467 170.358 23.726 170.134 23.726ZM169.518 32V25H170.736V32H169.518ZM173.448 29.06C173.569 29.6853 173.854 30.1707 174.302 30.516C174.759 30.8613 175.319 31.034 175.982 31.034C176.906 31.034 177.578 30.6933 177.998 30.012L179.034 30.6C178.353 31.6547 177.326 32.182 175.954 32.182C174.843 32.182 173.938 31.8367 173.238 31.146C172.547 30.446 172.202 29.564 172.202 28.5C172.202 27.4453 172.543 26.568 173.224 25.868C173.905 25.168 174.787 24.818 175.87 24.818C176.897 24.818 177.732 25.182 178.376 25.91C179.029 26.6287 179.356 27.4967 179.356 28.514C179.356 28.6913 179.342 28.8733 179.314 29.06H173.448ZM175.87 25.966C175.217 25.966 174.675 26.1527 174.246 26.526C173.817 26.89 173.551 27.38 173.448 27.996H178.124C178.021 27.3333 177.76 26.8293 177.34 26.484C176.92 26.1387 176.43 25.966 175.87 25.966ZM188.729 25H190.003L187.833 32H186.587L184.949 26.82L183.311 32H182.065L179.895 25H181.169L182.709 30.32L184.361 25H185.537L187.189 30.334L188.729 25ZM191.869 26.89C191.869 27.1607 192.004 27.38 192.275 27.548C192.545 27.7067 192.872 27.8373 193.255 27.94C193.637 28.0333 194.02 28.1453 194.403 28.276C194.785 28.3973 195.112 28.612 195.383 28.92C195.653 29.2187 195.789 29.606 195.789 30.082C195.789 30.7167 195.541 31.2253 195.047 31.608C194.561 31.9907 193.936 32.182 193.171 32.182C192.489 32.182 191.906 32.0327 191.421 31.734C190.935 31.4353 190.59 31.0387 190.385 30.544L191.435 29.942C191.547 30.278 191.757 30.544 192.065 30.74C192.373 30.936 192.741 31.034 193.171 31.034C193.572 31.034 193.903 30.9593 194.165 30.81C194.426 30.6513 194.557 30.4087 194.557 30.082C194.557 29.8113 194.421 29.5967 194.151 29.438C193.88 29.27 193.553 29.1393 193.171 29.046C192.788 28.9433 192.405 28.8267 192.023 28.696C191.64 28.5653 191.313 28.3507 191.043 28.052C190.772 27.7533 190.637 27.3707 190.637 26.904C190.637 26.2973 190.87 25.798 191.337 25.406C191.813 25.014 192.405 24.818 193.115 24.818C193.684 24.818 194.188 24.9487 194.627 25.21C195.075 25.462 195.411 25.8167 195.635 26.274L194.613 26.848C194.361 26.2507 193.861 25.952 193.115 25.952C192.769 25.952 192.475 26.036 192.233 26.204C191.99 26.3627 191.869 26.5913 191.869 26.89Z" fill="#1A1A1A"></path><path d="M189.129 0.0990999C189.204 -0.0330328 189.394 -0.0330335 189.468 0.0990992L191.418 3.55802C191.446 3.60731 191.494 3.64208 191.549 3.65327L195.441 4.43858C195.59 4.46858 195.649 4.64954 195.546 4.7612L192.859 7.68424C192.821 7.7259 192.802 7.78215 192.809 7.83836L193.265 11.7826C193.282 11.9333 193.128 12.0451 192.99 11.982L189.38 10.3296C189.328 10.3061 189.269 10.3061 189.218 10.3296L185.607 11.982C185.469 12.0451 185.316 11.9333 185.333 11.7826L185.789 7.83836C185.795 7.78215 185.777 7.7259 185.739 7.68424L183.052 4.7612C182.949 4.64954 183.008 4.46858 183.156 4.43858L187.048 3.65327C187.104 3.64208 187.152 3.60731 187.18 3.55802L189.129 0.0990999Z" fill="#FDDD0A"></path><path d="M207.129 0.0990999C207.204 -0.0330328 207.394 -0.0330335 207.468 0.0990992L209.418 3.55802C209.446 3.60731 209.494 3.64208 209.549 3.65327L213.441 4.43858C213.59 4.46858 213.649 4.64954 213.546 4.7612L210.859 7.68424C210.821 7.7259 210.802 7.78215 210.809 7.83836L211.265 11.7826C211.282 11.9333 211.128 12.0451 210.99 11.982L207.38 10.3296C207.328 10.3061 207.269 10.3061 207.218 10.3296L203.607 11.982C203.469 12.0451 203.316 11.9333 203.333 11.7826L203.789 7.83836C203.795 7.78215 203.777 7.7259 203.739 7.68424L201.052 4.7612C200.949 4.64954 201.008 4.46858 201.156 4.43858L205.048 3.65327C205.104 3.64208 205.152 3.60731 205.18 3.55802L207.129 0.0990999Z" fill="#FDDD0A"></path></svg> 