<svg width="111.000000" height="108.000000" viewBox="0 0 111 108" fill="none" xmlns="http://www.w3.org/2000/svg" xmlns:xlink="http://www.w3.org/1999/xlink">

	<circle id="Ellipse 1"  cx="55.000000" cy="54.000000" r="36.000000" fill="#1A1A1A" fill-opacity="1.000000"/>
	<path id="Vector 1" class="animated-arrow" d="M55.27 40.5L55.27 61.5M49.27 55.5L55.27 61.5L61.27 " stroke="#F3F3F5" stroke-opacity="1.000000" stroke-width="1.000000"/>
	<path id="S" d="M6.69 46.97L6.59 48.88C5.84 48.91 5.37 49.47 5.32 50.43C5.26 51.41 5.68 51.97 6.29 52C6.97 52.06 7.31 51.39 7.54 50.57L7.79 49.74C8.26 48.12 9.16 46.98 10.73 47.07C12.46 47.17 13.48 48.59 13.35 50.89C13.22 53.18 12.08 54.58 10.04 54.52L10.15 52.59C11.1 52.58 11.62 51.86 11.68 50.82C11.73 49.8 11.3 49.13 10.61 49.08C9.97 49.05 9.65 49.6 9.34 50.62L9.02 51.63C8.55 53.2 7.7 54.14 6.31 54.06C4.59 53.97 3.53 52.39 3.65 50.32C3.77 48.22 5.01 46.9 6.69 46.97Z" fill="#1A1A1A" fill-opacity="1.000000" fill-rule="evenodd"/>
	<path id="C" d="M5.68 39.48C6.23 37.37 7.87 36.09 10.05 36.39L9.53 38.34C8.49 38.23 7.68 38.83 7.4 39.89C7.03 41.3 7.87 42.52 9.77 43.02C11.73 43.53 13.01 42.86 13.37 41.47C13.64 40.44 13.28 39.52 12.35 39.08L12.87 37.13C14.5 37.78 15.69 39.6 15.07 41.95C14.43 44.4 12.24 45.76 9.26 44.98C6.27 44.19 5.04 41.9 5.68 39.48Z" fill="#1A1A1A" fill-opacity="1.000000" fill-rule="evenodd"/>
	<path id="R" d="M17.25 36.19L16.37 37.98L7.89 33.82L9.53 30.47C10.48 28.54 12.11 27.96 13.8 28.79C14.96 29.36 15.54 30.31 15.47 31.48L19.66 31.29L18.69 33.27L14.89 33.41L14.25 34.71L17.25 36.19ZM10.23 32.74L12.8 34L13.4 32.79C13.91 31.76 13.73 31.05 12.89 30.64C12.04 30.22 11.34 30.5 10.83 31.53L10.23 32.74Z" fill="#1A1A1A" fill-opacity="1.000000" fill-rule="evenodd"/>
	<path id="O" d="M15.45 21.38C16.99 19.4 19.56 18.98 22 20.88C24.44 22.79 24.64 25.39 23.1 27.36C21.55 29.35 18.97 29.75 16.55 27.86C14.11 25.95 13.89 23.36 15.45 21.38ZM21.71 26.27C22.6 25.13 22.33 23.71 20.75 22.48C19.17 21.24 17.73 21.32 16.84 22.47C15.94 23.61 16.22 25.03 17.8 26.26C19.37 27.5 20.81 27.42 21.71 26.27Z" fill="#1A1A1A" fill-opacity="1.000000" fill-rule="evenodd"/>
	<path id="L" d="M30.93 19.82L26.33 23.75L20.18 16.57L21.7 15.27L26.78 21.2L29.86 18.57L30.93 19.82Z" fill="#1A1A1A" fill-opacity="1.000000" fill-rule="evenodd"/>
	<path id="L" d="M37.74 15.95L32.49 18.96L27.78 10.76L29.51 9.77L33.4 16.54L36.92 14.52L37.74 15.95Z" fill="#1A1A1A" fill-opacity="1.000000" fill-rule="evenodd"/>
	<path id=" " d="" fill="#1A1A1A" fill-opacity="1.000000" fill-rule="evenodd"/>
	<path id="T" d="M45.45 5.54L42.62 6.11L42.29 4.5L49.9 2.95L50.23 4.57L47.39 5.14L48.94 12.8L47 13.19L45.45 5.54Z" fill="#1A1A1A" fill-opacity="1.000000" fill-rule="evenodd"/>
	<path id="O" d="M57.11 2.82C59.62 2.84 61.53 4.62 61.5 7.71C61.48 10.8 59.55 12.55 57.04 12.54C54.52 12.52 52.63 10.73 52.65 7.65C52.67 4.55 54.59 2.8 57.11 2.82ZM57.05 10.77C58.5 10.78 59.46 9.7 59.48 7.7C59.49 5.69 58.55 4.6 57.1 4.59C55.64 4.58 54.69 5.66 54.68 7.66C54.66 9.67 55.6 10.76 57.05 10.77Z" fill="#1A1A1A" fill-opacity="1.000000" fill-rule="evenodd"/>
	<path id=" " d="" fill="#1A1A1A" fill-opacity="1.000000" fill-rule="evenodd"/>
	<path id="E" d="M73.18 16.2L67.14 14.1L70.26 5.17L76.27 7.27L75.73 8.82L71.6 7.38L70.86 9.51L74.68 10.84L74.14 12.4L70.32 11.07L69.57 13.2L73.72 14.65L73.18 16.2Z" fill="#1A1A1A" fill-opacity="1.000000" fill-rule="evenodd"/>
	<path id="X" d="M78.78 8.61L80.74 9.75L80.76 13.49L80.83 13.53L84.11 11.71L86.05 12.85L81.18 15.48L81.34 21.05L79.36 19.89L79.31 16.12L79.25 16.09L75.94 17.9L73.97 16.74L78.91 14.15L78.78 8.61Z" fill="#1A1A1A" fill-opacity="1.000000" fill-rule="evenodd"/>
	<path id="P" d="M82.91 22.86L81.42 21.53L87.71 14.48L90.5 16.96C92.1 18.39 92.14 20.21 90.89 21.61C89.64 23.02 87.83 23.14 86.2 21.69L84.95 20.58L82.91 22.86ZM88.12 17.03L86.02 19.38L87.03 20.28C87.88 21.05 88.73 20.94 89.35 20.24C89.98 19.54 89.98 18.69 89.12 17.93L88.12 17.03Z" fill="#1A1A1A" fill-opacity="1.000000" fill-rule="evenodd"/>
	<path id="L" d="M91.11 32.28L87.45 27.46L94.98 21.74L96.19 23.33L89.97 28.05L92.42 31.28L91.11 32.28Z" fill="#1A1A1A" fill-opacity="1.000000" fill-rule="evenodd"/>
	<path id="O" d="M102.35 33.46C103.44 35.72 102.68 38.21 99.9 39.56C97.11 40.9 94.69 39.94 93.6 37.68C92.51 35.41 93.28 32.92 96.05 31.59C98.84 30.24 101.26 31.19 102.35 33.46ZM95.19 36.91C95.82 38.22 97.21 38.6 99.02 37.73C100.82 36.86 101.39 35.53 100.76 34.23C100.13 32.92 98.74 32.54 96.93 33.41C95.13 34.28 94.56 35.6 95.19 36.91Z" fill="#1A1A1A" fill-opacity="1.000000" fill-rule="evenodd"/>
	<path id="R" d="M95.89 44.06L95.41 42.12L104.59 39.85L105.49 43.47C106 45.56 105.13 47.05 103.3 47.5C102.05 47.81 100.99 47.46 100.29 46.53L97.2 49.36L96.67 47.22L99.5 44.67L99.15 43.26L95.89 44.06ZM103.49 42.19L100.71 42.87L101.03 44.19C101.31 45.3 101.9 45.73 102.81 45.5C103.72 45.28 104.09 44.61 103.81 43.49L103.49 42.19Z" fill="#1A1A1A" fill-opacity="1.000000" fill-rule="evenodd"/>
	<path id="E" d="M97.36 56.8L97.05 50.42L106.49 49.95L106.81 56.31L105.16 56.39L104.95 52.03L102.7 52.14L102.89 56.18L101.25 56.26L101.05 52.22L98.79 52.33L99.01 56.72L97.36 56.8Z" fill="#1A1A1A" fill-opacity="1.000000" fill-rule="evenodd"/>

 <!-- <style>
        @keyframes moveArrow {
            0% {
                transform: translateY(0);
            }
            50% {
                transform: translateY(10px); /* Регулируйте это значение в соответствии с требуемым расстоянием */
            }
            100% {
                transform: translateY(0);
            }
        }
        .animated-arrow {
            animation: moveArrow 4s infinite; /* 4s это половина от периода в 2 секунды */
        }
    </style> -->
		<style>
    @keyframes moveArrow {
        0% {
            transform: translateY(0);
        }
        50% {
            transform: translateY(10px);
        }
        100% {
            transform: translateY(0);
        }
    }

    .animated-arrow {
        animation: moveArrow 2s infinite; /* Изменил время анимации на 2 секунды */
        transform-origin: center; /* Добавил это свойство для центрирования анимации */
    }
</style>
</svg>


