<svg width="154.000000" height="154.000000" viewBox="0 0 154 154" fill="none" xmlns="http://www.w3.org/2000/svg" xmlns:xlink="http://www.w3.org/1999/xlink">
	<defs>
		<filter id="filter_13_1994_dd" x="0.000000" y="0.000000" width="154.000000" height="154.000000" filterUnits="userSpaceOnUse" color-interpolation-filters="sRGB">
			<feFlood flood-opacity="0" result="BackgroundImageFix"/>
			<feColorMatrix in="SourceAlpha" type="matrix" values="0 0 0 0 0 0 0 0 0 0 0 0 0 0 0 0 0 0 127 0" result="hardAlpha"/>
			<feOffset dx="0" dy="16"/>
			<feGaussianBlur stdDeviation="10.6667"/>
			<feComposite in2="hardAlpha" operator="out" k2="-1" k3="1"/>
			<feColorMatrix type="matrix" values="0 0 0 0 0 0 0 0 0 0 0 0 0 0 0 0 0 0 0.16 0"/>
			<feBlend mode="normal" in2="BackgroundImageFix" result="effect_dropShadow_1"/>
			<feBlend mode="normal" in="SourceGraphic" in2="effect_dropShadow_1" result="shape"/>
		</filter>
	</defs>
	<g filter="url(#filter_13_1994_dd)">
		<circle id="Ellipse"  cx="77.000000" cy="61.000000" r="45.000000" fill="#FFFFFF" fill-opacity="1.000000"/>
	</g>

	<g id="Circle" >
	<path id="C"  d="M71.05 96.48C69.05 96.21 67.76 94.91 67.85 92.92L70.03 93.21C70 93.94 70.41 94.49 71.23 94.6C72.32 94.74 73.02 94 73.2 92.62C73.4 91.17 72.89 90.34 71.84 90.2C71.05 90.1 70.51 90.45 70.31 91.12L68.13 90.81C68.42 89.48 69.81 88.02 72.14 88.33C74.32 88.63 75.77 90.28 75.42 92.92C75.06 95.57 73.18 96.77 71.05 96.48Z" fill="#000000" fill-opacity="1.000000" fill-rule="evenodd"/>
	<path id="O" d="M61.49 93.47C59.5 92.6 58.5 90.59 59.56 88.14C60.63 85.69 62.78 85.06 64.77 85.93C66.78 86.8 67.76 88.82 66.7 91.25C65.63 93.7 63.49 94.34 61.49 93.47ZM64.02 87.66C63.03 87.23 62.19 87.72 61.61 89.03C61.04 90.35 61.25 91.3 62.24 91.73C63.23 92.16 64.07 91.68 64.65 90.36C65.22 89.04 65 88.09 64.02 87.66Z" fill="#000000" fill-opacity="1.000000" fill-rule="evenodd"/>
	<path id="N" d="M52.53 87.3L50.86 85.92L55.95 79.75L57.35 80.9L56.9 85.98L56.94 86.01L59.61 82.77L61.29 84.15L56.2 90.32L54.78 89.15L55.25 84.11L55.2 84.07L52.53 87.3Z" fill="#000000" fill-opacity="1.000000" fill-rule="evenodd"/>
	<path id="T" d="M49.14 80.69L50.52 82.66L49.09 83.67L45.1 77.97L46.53 76.97L47.91 78.94L53.03 75.35L54.26 77.1L49.14 80.69Z" fill="#000000" fill-opacity="1.000000" fill-rule="evenodd"/>
	<path id="A" d="M49.32 70.94L50.92 70.88L51.69 73.09L43.26 73.22L42.29 70.41L48.99 65.3L49.75 67.51L48.46 68.45L49.32 70.94ZM44.87 71.12L47.63 71.01L47.08 69.45L44.85 71.06L44.87 71.12Z" fill="#000000" fill-opacity="1.000000" fill-rule="evenodd"/>
	<path id="C" d="M40.98 61.43C40.89 59.42 41.94 57.91 43.92 57.65L44.02 59.85C43.3 59.95 42.83 60.45 42.87 61.28C42.92 62.38 43.77 62.93 45.16 62.86C46.63 62.8 47.35 62.15 47.3 61.09C47.26 60.29 46.82 59.83 46.13 59.75L46.04 57.55C47.4 57.6 49.08 58.71 49.19 61.05C49.29 63.25 47.92 64.97 45.27 65.1C42.6 65.22 41.08 63.58 40.98 61.43Z" fill="#000000" fill-opacity="1.000000" fill-rule="evenodd"/>
	<path id="T" d="M43.67 53.55L43.14 55.9L41.43 55.51L42.97 48.73L44.67 49.12L44.14 51.47L50.24 52.85L49.76 54.93L43.67 53.55Z" fill="#000000" fill-opacity="1.000000" fill-rule="evenodd"/>
	<path id=" " d="" fill="#000000" fill-opacity="1.000000" fill-rule="evenodd"/>
	<path id="U" d="M53.97 40.13L50.06 37.12L51.39 35.4L55.44 38.53C56.89 39.65 56.94 41.45 55.68 43.08C54.41 44.72 52.67 45.11 51.22 43.99L47.16 40.86L48.49 39.14L52.4 42.16C52.99 42.62 53.74 42.52 54.2 41.93C54.65 41.34 54.55 40.59 53.97 40.13Z" fill="#000000" fill-opacity="1.000000" fill-rule="evenodd"/>
	<path id="S" d="M59.95 31.95L58.3 33.21C57.95 32.83 57.5 32.79 56.94 33.21C56.41 33.62 56.33 34 56.54 34.28C56.76 34.6 57.16 34.57 57.86 34.24L58.47 33.95C60.1 33.18 61.2 33.42 61.94 34.38C62.89 35.64 62.46 37.08 60.85 38.31C59.19 39.57 57.57 39.68 56.34 38.09L57.98 36.84C58.45 37.4 59.08 37.41 59.75 36.91C60.3 36.49 60.41 36.05 60.18 35.73C59.95 35.45 59.58 35.45 58.75 35.84L58.01 36.19C56.7 36.81 55.59 36.78 54.83 35.78C53.9 34.58 54.35 32.95 55.86 31.8C57.4 30.62 58.99 30.71 59.95 31.95Z" fill="#000000" fill-opacity="1.000000" fill-rule="evenodd"/>
	<path id=" " d="" fill="#000000" fill-opacity="1.000000" fill-rule="evenodd"/>
	<path id="•" d="M67.97 30.2Q67.85 30.67 68.03 31.35Q68.21 32.01 68.55 32.37C68.77 32.6 69.03 32.75 69.32 32.81C69.61 32.87 69.91 32.86 70.23 32.77Q70.64 32.66 70.94 32.43Q70.99 32.39 71.03 32.35C71.26 32.15 71.41 31.9 71.49 31.58Q71.61 31.1 71.43 30.45Q71.25 29.77 70.91 29.42Q70.67 29.16 70.37 29.05Q70.26 29.01 70.14 28.99Q70.1 28.98 70.06 28.97Q69.66 28.92 69.23 29.03Q68.75 29.16 68.42 29.45C68.2 29.64 68.05 29.89 67.97 30.2Z" fill="#FDDD0A" fill-opacity="1.000000" fill-rule="evenodd"/>
	<path id=" " d="" fill="#000000" fill-opacity="1.000000" fill-rule="evenodd"/>
	<path id="C" d="M83.18 25.46C85.18 25.74 86.46 27.05 86.36 29.04L84.18 28.74C84.21 28.01 83.81 27.46 82.98 27.34C81.9 27.19 81.2 27.93 81 29.31C80.8 30.76 81.3 31.59 82.35 31.73C83.14 31.84 83.68 31.49 83.88 30.83L86.06 31.15C85.76 32.48 84.36 33.93 82.04 33.6C79.86 33.29 78.42 31.63 78.79 29C79.16 26.35 81.05 25.16 83.18 25.46Z" fill="#000000" fill-opacity="1.000000" fill-rule="evenodd"/>
	<path id="O" d="M92.72 28.53C94.71 29.42 95.7 31.43 94.61 33.87C93.53 36.31 91.38 36.93 89.39 36.05C87.39 35.16 86.42 33.14 87.5 30.72C88.58 28.27 90.72 27.65 92.72 28.53ZM90.16 34.32C91.14 34.76 91.99 34.28 92.57 32.96C93.15 31.65 92.94 30.7 91.96 30.26C90.97 29.83 90.13 30.31 89.54 31.62C88.96 32.93 89.17 33.88 90.16 34.32Z" fill="#000000" fill-opacity="1.000000" fill-rule="evenodd"/>
	<path id="N" d="M101.64 34.76L103.3 36.15L98.18 42.29L96.79 41.13L97.26 36.05L97.22 36.02L94.53 39.24L92.86 37.85L97.99 31.71L99.41 32.89L98.9 37.93L98.95 37.97L101.64 34.76Z" fill="#000000" fill-opacity="1.000000" fill-rule="evenodd"/>
	<path id="T" d="M104.99 41.39L103.62 39.41L105.06 38.41L109.02 44.13L107.58 45.12L106.21 43.15L101.07 46.7L99.85 44.94L104.99 41.39Z" fill="#000000" fill-opacity="1.000000" fill-rule="evenodd"/>
	<path id="A" d="M104.75 51.13L103.15 51.19L102.4 48.97L110.82 48.9L111.78 51.71L105.05 56.78L104.29 54.56L105.6 53.63L104.75 51.13ZM109.2 50.98L106.44 51.08L106.98 52.64L109.22 51.04L109.2 50.98Z" fill="#000000" fill-opacity="1.000000" fill-rule="evenodd"/>
	<path id="C" d="M113.03 60.69C113.11 62.71 112.05 64.21 110.07 64.46L109.98 62.26C110.7 62.16 111.18 61.67 111.14 60.83C111.1 59.74 110.25 59.18 108.86 59.24C107.39 59.3 106.66 59.94 106.71 61C106.74 61.79 107.19 62.26 107.87 62.34L107.95 64.54C106.58 64.49 104.91 63.37 104.82 61.03C104.73 58.83 106.11 57.11 108.77 57C111.44 56.9 112.94 58.54 113.03 60.69Z" fill="#000000" fill-opacity="1.000000" fill-rule="evenodd"/>
	<path id="T" d="M110.29 68.56L110.84 66.21L112.54 66.61L110.96 73.38L109.26 72.99L109.81 70.64L103.72 69.22L104.21 67.14L110.29 68.56Z" fill="#000000" fill-opacity="1.000000" fill-rule="evenodd"/>
	<path id=" " d="" fill="#000000" fill-opacity="1.000000" fill-rule="evenodd"/>
	<path id="U" d="M99.91 81.91L103.8 84.96L102.46 86.67L98.43 83.51C96.99 82.38 96.95 80.58 98.22 78.96C99.49 77.33 101.24 76.94 102.68 78.07L106.72 81.23L105.38 82.94L101.49 79.89C100.9 79.44 100.15 79.53 99.69 80.11C99.23 80.7 99.33 81.45 99.91 81.91Z" fill="#000000" fill-opacity="1.000000" fill-rule="evenodd"/>
	<path id="S" d="M93.87 90.06L95.53 88.8C95.88 89.19 96.33 89.24 96.89 88.81C97.43 88.41 97.51 88.03 97.3 87.75C97.09 87.43 96.68 87.46 95.98 87.78L95.37 88.07C93.73 88.83 92.64 88.58 91.9 87.61C90.96 86.35 91.4 84.92 93.02 83.7C94.68 82.44 96.31 82.34 97.52 83.94L95.88 85.18C95.41 84.62 94.78 84.6 94.11 85.1C93.56 85.52 93.44 85.96 93.67 86.28C93.9 86.56 94.27 86.56 95.1 86.18L95.84 85.83C97.16 85.22 98.27 85.26 99.02 86.26C99.94 87.47 99.49 89.09 97.97 90.24C96.42 91.41 94.83 91.31 93.87 90.06Z" fill="#000000" fill-opacity="1.000000" fill-rule="evenodd"/>
	<path id=" " d="" fill="#000000" fill-opacity="1.000000" fill-rule="evenodd"/>
	<path id="•" d="M85.85 91.76Q85.97 91.29 85.79 90.6Q85.62 89.94 85.28 89.59C85.06 89.35 84.8 89.2 84.51 89.14C84.22 89.08 83.92 89.09 83.6 89.17Q83.19 89.28 82.89 89.51Q82.84 89.55 82.79 89.59C82.57 89.79 82.41 90.04 82.33 90.36Q82.21 90.83 82.38 91.49Q82.56 92.17 82.9 92.52Q83.14 92.78 83.44 92.89Q83.55 92.94 83.67 92.96Q83.71 92.97 83.75 92.97Q84.15 93.03 84.57 92.92Q85.06 92.8 85.39 92.51C85.61 92.32 85.76 92.07 85.85 91.76Z" fill="#FDDD0A" fill-opacity="1.000000" fill-rule="evenodd"/>
	<path id=" " d="" fill="#000000" fill-opacity="1.000000" fill-rule="evenodd"/>
	</g>
	<path id="Arrow_icon" d="M72 56L83 56L83 67M83 56L72 "  stroke="#FDDD0A" stroke-opacity="1.000000" stroke-width="1.500000"/>
	


<style>


#Circle {
	  transform-origin: 77px 61px;
	  animation: moveAround 20s infinite linear;
	  
}


@keyframes moveAround {
    0% {
        transform: rotate(0);
    }
    100% {
        transform: rotate(1turn);
    }
}

<!-- @keyframes moveAround {
    from { transform: rotate(0deg); }
    to { transform: rotate(360deg); }
} -->


</style>
</svg>
